<svg xmlns="http://www.w3.org/2000/svg"  viewBox="0 0 100 100" width="100px" height="100px"><path fill="#c7ede6" d="M88.564,55.879c0.3-0.616,0.566-1.264,0.796-1.943c2.633-7.77-1.349-17.078-9.733-19.325c-0.906-11.384-8.906-19.193-17.941-20.526c-10.341-1.525-19.814,5.044-22.966,15.485c-3.799-1.346-7.501-1.182-10.99,0.857c-1.583,0.732-3.031,1.812-4.33,3.233c-1.907,2.086-3.147,4.719-3.652,7.495c-0.748,0.118-1.483,0.236-2.176,0.484c-4.04,1.449-6.589,4.431-7.288,8.923c-0.435,2.797,0.443,5.587,0.933,6.714c1.935,4.455,6.422,6.98,10.981,6.312c0.227-0.033,0.557,0.069,0.752,0.233c0.241,7.12,3.698,13.417,8.884,17.014c8.321,5.772,19.027,3.994,25.781-3.921c2.894,2.96,6.338,4.398,10.384,3.876c4.023-0.519,7.147-2.739,9.426-6.349c1.053,0.283,2.051,0.691,3.083,0.804c4.042,0.442,7.324-1.165,9.732-4.8c0.922-1.391,1.793-3.194,1.793-6.354C92.034,60.836,90.741,57.869,88.564,55.879z"/><path fill="#fdfcef" d="M76.669,49.251c0,0,11.691,0,11.762,0c2.7,0,4.888-2.189,4.888-4.889c0-2.355-1.666-4.321-3.884-4.784c0.026-0.206,0.043-0.415,0.043-0.628c0-2.796-2.267-5.063-5.063-5.063c-1.651,0-3.113,0.794-4.037,2.017c-0.236-3.113-3.017-5.514-6.27-5.116c-2.379,0.291-4.346,2.13-4.784,4.486c-0.14,0.756-0.126,1.489,0.014,2.177c-0.638-0.687-1.546-1.119-2.557-1.119c-1.85,0-3.361,1.441-3.48,3.261c-0.84-0.186-1.754-0.174-2.717,0.188c-1.84,0.691-3.15,2.423-3.227,4.387c-0.109,2.789,2.12,5.085,4.885,5.085c0.21,0,0.948,0,1.118,0h10.151"/><path fill="#472b29" d="M88.431,49.751H76.669c-0.276,0-0.5-0.224-0.5-0.5s0.224-0.5,0.5-0.5h11.762c2.42,0,4.389-1.969,4.389-4.389c0-2.066-1.466-3.873-3.486-4.295c-0.254-0.053-0.426-0.292-0.394-0.55c0.022-0.187,0.039-0.375,0.039-0.567c0-2.516-2.047-4.563-4.562-4.563c-1.439,0-2.766,0.663-3.639,1.818c-0.125,0.166-0.343,0.238-0.539,0.179c-0.2-0.059-0.342-0.235-0.358-0.442c-0.104-1.377-0.778-2.671-1.85-3.549c-1.082-0.887-2.452-1.282-3.86-1.109c-2.166,0.265-3.956,1.943-4.354,4.081c-0.124,0.667-0.12,1.335,0.013,1.986c0.044,0.22-0.062,0.442-0.262,0.544c-0.198,0.103-0.442,0.06-0.596-0.105c-0.572-0.618-1.351-0.959-2.189-0.959c-1.568,0-2.878,1.227-2.98,2.793c-0.01,0.146-0.082,0.28-0.199,0.367c-0.116,0.087-0.268,0.118-0.407,0.088c-0.844-0.188-1.64-0.131-2.434,0.167c-1.669,0.626-2.836,2.209-2.902,3.938c-0.048,1.207,0.386,2.35,1.221,3.218c0.835,0.869,1.959,1.347,3.163,1.347h11.27c0.276,0,0.5,0.224,0.5,0.5s-0.224,0.5-0.5,0.5h-11.27c-1.479,0-2.858-0.587-3.884-1.654c-1.025-1.066-1.558-2.469-1.5-3.95c0.083-2.126,1.51-4.069,3.551-4.836c0.801-0.301,1.628-0.401,2.468-0.298c0.377-1.823,1.996-3.182,3.904-3.182c0.685,0,1.354,0.179,1.944,0.509c-0.001-0.385,0.035-0.772,0.107-1.159c0.476-2.562,2.62-4.573,5.215-4.891c1.685-0.207,3.32,0.266,4.615,1.328c1.004,0.823,1.716,1.951,2.038,3.193c1.012-0.916,2.319-1.425,3.714-1.425c3.067,0,5.562,2.496,5.562,5.563c0,0.083-0.002,0.167-0.007,0.249c2.254,0.672,3.848,2.777,3.848,5.164C93.82,47.333,91.403,49.751,88.431,49.751z"/><path fill="#fdfcef" d="M73.836,38.482c-1.808-0.119-3.365,1.13-3.476,2.789c-0.014,0.206-0.005,0.409,0.025,0.606c-0.349-0.394-0.865-0.661-1.458-0.7c-1.085-0.071-2.022,0.645-2.158,1.62c-0.197-0.054-0.403-0.09-0.616-0.104c-1.582-0.104-2.944,0.989-3.042,2.441"/><path fill="#472b29" d="M63.112,45.383c-0.006,0-0.011,0-0.017,0c-0.138-0.009-0.242-0.128-0.232-0.266c0.106-1.586,1.572-2.779,3.308-2.674c0.135,0.009,0.271,0.027,0.408,0.053c0.273-0.967,1.264-1.64,2.365-1.568c0.426,0.028,0.824,0.161,1.163,0.382c0.001-0.019,0.002-0.037,0.004-0.055c0.119-1.794,1.809-3.146,3.742-3.022c0.138,0.009,0.242,0.128,0.232,0.266c-0.008,0.132-0.118,0.233-0.249,0.233c-0.005,0-0.011,0-0.017,0c-1.651-0.108-3.108,1.038-3.211,2.557c-0.012,0.182-0.004,0.368,0.023,0.553c0.017,0.109-0.041,0.216-0.142,0.263c-0.101,0.046-0.219,0.022-0.293-0.061c-0.317-0.358-0.786-0.583-1.287-0.616c-0.952-0.064-1.775,0.555-1.893,1.405c-0.011,0.071-0.051,0.134-0.11,0.174c-0.06,0.04-0.134,0.052-0.203,0.033c-0.189-0.051-0.38-0.084-0.567-0.096c-1.439-0.098-2.687,0.897-2.776,2.208C63.352,45.282,63.243,45.383,63.112,45.383z"/><path fill="#fdfcef" d="M90.411,40.151c-1.699-0.801-3.664-0.234-4.389,1.267c-0.09,0.186-0.157,0.379-0.201,0.574"/><path fill="#472b29" d="M85.821,42.241c-0.019,0-0.037-0.002-0.056-0.006c-0.135-0.031-0.219-0.165-0.188-0.3c0.049-0.216,0.123-0.427,0.219-0.626c0.783-1.622,2.899-2.244,4.721-1.384c0.125,0.059,0.179,0.208,0.12,0.333c-0.06,0.125-0.211,0.178-0.333,0.12c-1.574-0.742-3.393-0.227-4.057,1.149c-0.08,0.166-0.142,0.341-0.184,0.521C86.037,42.163,85.935,42.241,85.821,42.241z"/><path fill="#fff" d="M18.229 47.915H8.199c-.276 0-.5-.224-.5-.5s.224-.5.5-.5h10.03c.276 0 .5.224.5.5S18.505 47.915 18.229 47.915zM21.111 47.915h-1.446c-.276 0-.5-.224-.5-.5s.224-.5.5-.5h1.446c.276 0 .5.224.5.5S21.387 47.915 21.111 47.915zM25.165 47.915H22.62c-.276 0-.5-.224-.5-.5s.224-.5.5-.5h2.546c.276 0 .5.224.5.5S25.442 47.915 25.165 47.915zM25.165 49.78h-9.617c-.276 0-.5-.224-.5-.5s.224-.5.5-.5h9.617c.276 0 .5.224.5.5S25.442 49.78 25.165 49.78zM13.817 49.78h-.58c-.276 0-.5-.224-.5-.5s.224-.5.5-.5h.58c.276 0 .5.224.5.5S14.093 49.78 13.817 49.78zM11.44 49.78H9.984c-.276 0-.5-.224-.5-.5s.224-.5.5-.5h1.456c.276 0 .5.224.5.5S11.716 49.78 11.44 49.78zM20.577 46.05h-5.028c-.276 0-.5-.224-.5-.5s.224-.5.5-.5h5.028c.276 0 .5.224.5.5S20.853 46.05 20.577 46.05zM20.577 44.185h-1.258c-.276 0-.5-.224-.5-.5s.224-.5.5-.5h1.258c.276 0 .5.224.5.5S20.853 44.185 20.577 44.185zM17.307 51.645h-1.759c-.276 0-.5-.224-.5-.5s.224-.5.5-.5h1.759c.276 0 .5.224.5.5S17.583 51.645 17.307 51.645zM71.408 21.638H61.376c-.276 0-.5-.224-.5-.5s.224-.5.5-.5h10.031c.276 0 .5.224.5.5S71.684 21.638 71.408 21.638zM74.288 21.638h-1.446c-.276 0-.5-.224-.5-.5s.224-.5.5-.5h1.446c.276 0 .5.224.5.5S74.565 21.638 74.288 21.638zM78.343 21.638h-2.546c-.276 0-.5-.224-.5-.5s.224-.5.5-.5h2.546c.276 0 .5.224.5.5S78.62 21.638 78.343 21.638zM76.317 17.909h-9.616c-.276 0-.5-.224-.5-.5s.224-.5.5-.5h9.616c.276 0 .5.224.5.5S76.593 17.909 76.317 17.909zM64.969 17.909h-.58c-.276 0-.5-.224-.5-.5s.224-.5.5-.5h.58c.276 0 .5.224.5.5S65.245 17.909 64.969 17.909zM62.592 17.909h-1.456c-.276 0-.5-.224-.5-.5s.224-.5.5-.5h1.456c.276 0 .5.224.5.5S62.869 17.909 62.592 17.909zM73.754 19.773h-5.027c-.276 0-.5-.224-.5-.5s.224-.5.5-.5h5.027c.276 0 .5.224.5.5S74.031 19.773 73.754 19.773z"/><path fill="#fff" d="M73.754 17.909h-1.258c-.276 0-.5-.224-.5-.5s.224-.5.5-.5h1.258c.276 0 .5.224.5.5S74.031 17.909 73.754 17.909zM67.271 19.773h-1.758c-.276 0-.5-.224-.5-.5s.224-.5.5-.5h1.758c.276 0 .5.224.5.5S67.547 19.773 67.271 19.773z"/><g><path fill="#39c1d7" d="M66.675,72.849H36.962c-3.766,0-6.847-3.081-6.847-6.847V36.288c0-3.766,3.081-6.847,6.847-6.847h29.713c3.766,0,6.847,3.081,6.847,6.847v29.713C73.523,69.767,70.441,72.849,66.675,72.849z"/><path fill="#472b29" d="M66.675,73.549H36.962c-4.162,0-7.548-3.386-7.548-7.547V36.289c0-4.162,3.386-7.547,7.548-7.547h29.713c4.162,0,7.548,3.386,7.548,7.547v29.713C74.223,70.163,70.837,73.549,66.675,73.549z M36.962,30.142c-3.39,0-6.147,2.757-6.147,6.147v29.713c0,3.39,2.758,6.147,6.147,6.147h29.713c3.39,0,6.147-2.757,6.147-6.147V36.289c0-3.39-2.758-6.147-6.147-6.147H36.962z"/><path fill="#fdfcee" d="M64.873,69.748H38.764c-3.052,0-5.549-2.497-5.549-5.549V38.091c0-3.052,2.497-5.549,5.549-5.549h26.109c3.052,0,5.549,2.497,5.549,5.549v26.109C70.422,67.251,67.925,69.748,64.873,69.748z"/><path fill="#472b29" d="M64.768 70.098H38.87c-3.311 0-6.004-2.693-6.004-6.004V38.196c0-3.311 2.693-6.004 6.004-6.004h24.662c.193 0 .35.157.35.35s-.156.35-.35.35H38.87c-2.925 0-5.305 2.379-5.305 5.304v25.898c0 2.924 2.38 5.304 5.305 5.304h25.898c2.925 0 5.305-2.379 5.305-5.304V49.767c0-.193.156-.35.35-.35s.35.157.35.35v14.327C70.772 67.405 68.078 70.098 64.768 70.098zM70.422 48.05c-.193 0-.35-.157-.35-.35v-2.756c0-.193.156-.35.35-.35s.35.157.35.35V47.7C70.772 47.893 70.616 48.05 70.422 48.05z"/><g><path fill="#472b29" d="M70.422,43.916c-0.193,0-0.35-0.157-0.35-0.35v-1.378c0-0.193,0.156-0.35,0.35-0.35s0.35,0.157,0.35,0.35v1.378C70.772,43.759,70.616,43.916,70.422,43.916z"/></g><g><path fill="#39c1d7" d="M50.123,47.002c-0.648,0.736-0.984,1.586-1.111,2.548c1.949,0,3.878,0,5.821,0c0-0.142,0.008-0.287-0.001-0.43c-0.039-0.628-0.174-1.23-0.517-1.768c-0.459-0.721-1.149-1.079-1.97-1.211c-1.191-0.192-2.34,0.011-3.457,0.418c-1.633,0.595-3.005,1.568-4.096,2.925c-0.183,0.228-0.347,0.473-0.548,0.749c0.017-0.137,0.026-0.236,0.041-0.335c0.235-1.572,0.801-3.007,1.821-4.238c1.198-1.447,2.741-2.305,4.593-2.604c1.803-0.291,3.509,0.002,5.093,0.919c1.457,0.844,2.462,2.081,3.062,3.649c0.346,0.904,0.515,1.844,0.524,2.812c0.006,0.61,0.011,1.22,0.017,1.829c0.001,0.061,0,0.122,0,0.206c-3.446,0-6.876,0-10.318,0c0.004,0.846,0.25,1.575,0.818,2.181c0.66,0.704,1.507,1.046,2.436,1.181c1.948,0.284,3.784-0.072,5.496-1.05c0.044-0.025,0.088-0.05,0.132-0.075c0.004-0.002,0.011-0.001,0.037-0.003c0.004,0.059,0.01,0.118,0.01,0.177c0,1.039-0.002,2.079,0.003,3.118c0.001,0.119-0.038,0.181-0.143,0.234c-1.228,0.612-2.527,0.961-3.892,1.067c-0.87,0.067-1.737,0.068-2.598-0.107c-2.591-0.525-4.658-2.423-5.132-5.091c-0.541-3.045,0.908-5.857,3.82-7.1C50.07,46.999,50.082,47.002,50.123,47.002z"/><path fill="#472b29" d="M52.971,59.667c-0.609,0-1.152-0.051-1.663-0.155c-2.838-0.575-4.902-2.626-5.388-5.352c-0.576-3.243,0.999-6.169,4.013-7.457c0.045-0.019,0.117-0.028,0.168-0.027c0.125,0.006,0.254,0.083,0.303,0.198s0.046,0.249-0.036,0.342c-0.494,0.562-0.814,1.221-0.973,2.008h5.116c0-0.028-0.001-0.057-0.003-0.085c-0.043-0.667-0.191-1.18-0.468-1.613c-0.374-0.587-0.945-0.936-1.747-1.065c-1.021-0.164-2.1-0.032-3.294,0.402c-1.581,0.577-2.911,1.526-3.954,2.824c-0.12,0.149-0.23,0.305-0.35,0.473l-0.188,0.264c-0.087,0.121-0.243,0.167-0.382,0.111c-0.138-0.054-0.222-0.194-0.203-0.341l0.042-0.344c0.255-1.709,0.891-3.189,1.892-4.397c1.231-1.489,2.843-2.403,4.791-2.717c1.892-0.305,3.681,0.016,5.308,0.958c1.486,0.861,2.563,2.145,3.202,3.814c0.353,0.921,0.535,1.905,0.545,2.925l0.017,1.958c0,0.18-0.146,0.406-0.325,0.406h-9.978c0.06,0.649,0.295,1.186,0.715,1.634c0.552,0.588,1.286,0.941,2.246,1.081c1.861,0.272,3.639-0.069,5.287-1.01l0.135-0.077c0.044-0.024,0.108-0.041,0.158-0.042c0.211-0.009,0.354,0.128,0.361,0.307c0.008,0.102,0.011,0.148,0.011,0.193v1.04c0,0.692-0.001,1.385,0.003,2.077c0,0.242-0.109,0.419-0.323,0.526c-1.244,0.62-2.594,0.99-4.012,1.101C53.632,59.653,53.292,59.667,52.971,59.667z M49.175,47.84c-2.056,1.334-3.066,3.663-2.614,6.207c0.437,2.458,2.306,4.308,4.876,4.829c0.719,0.146,1.516,0.177,2.509,0.101c1.32-0.102,2.576-0.444,3.735-1.015c-0.003-0.687-0.003-1.363-0.003-2.04v-0.69c-1.715,0.893-3.517,1.195-5.396,0.923c-1.111-0.162-1.971-0.581-2.627-1.28c-0.605-0.646-0.901-1.432-0.906-2.402c0-0.086,0.034-0.169,0.095-0.231c0.062-0.061,0.144-0.096,0.23-0.096h9.992l-0.016-1.699c-0.009-0.951-0.177-1.859-0.502-2.708c-0.584-1.527-1.566-2.699-2.921-3.484c-1.493-0.865-3.135-1.16-4.878-0.879c-1.788,0.289-3.266,1.126-4.395,2.49c-0.739,0.894-1.252,1.915-1.553,3.099c1.075-1.231,2.41-2.143,3.974-2.712c1.303-0.475,2.484-0.616,3.62-0.434c0.981,0.158,1.719,0.615,2.192,1.357c0.337,0.529,0.518,1.14,0.567,1.922c0.007,0.107,0.005,0.213,0.003,0.32l-0.001,0.131c0,0.18-0.146,0.325-0.325,0.325h-5.821c-0.094,0-0.183-0.041-0.244-0.111s-0.09-0.164-0.078-0.257C48.771,48.892,48.932,48.339,49.175,47.84z"/></g></g><g><path fill="#fdfcef" d="M40.506,75.616c1.883,0,3.517,0,3.54,0c2.11,0,3.821-1.674,3.821-3.739c0-1.802-1.302-3.305-3.035-3.66c0.02-0.158,0.034-0.317,0.034-0.48c0-2.139-1.772-3.873-3.957-3.873c-1.29,0-2.433,0.607-3.155,1.543c-0.185-2.381-2.358-4.218-4.9-3.913c-1.859,0.223-3.397,1.629-3.739,3.431c-0.11,0.578-0.098,1.139,0.011,1.665c-0.498-0.525-1.208-0.856-1.998-0.856c-1.446,0-2.627,1.102-2.72,2.494c-0.657-0.142-1.371-0.133-2.123,0.143c-1.438,0.528-2.462,1.853-2.522,3.356c-0.085,2.133,1.657,3.889,3.818,3.889c0.164,0,0.741,0,0.874,0h7.934 M34.028,75.616h0.36"/><path fill="#472b29" d="M44.046,76.116h-3.54c-0.276,0-0.5-0.224-0.5-0.5s0.224-0.5,0.5-0.5h3.54c1.831,0,3.32-1.453,3.32-3.239c0-1.524-1.108-2.857-2.636-3.17c-0.255-0.052-0.428-0.292-0.396-0.551c0.017-0.138,0.029-0.277,0.029-0.418c0-1.86-1.551-3.373-3.457-3.373c-1.092,0-2.098,0.491-2.76,1.348c-0.126,0.164-0.343,0.233-0.538,0.173c-0.198-0.059-0.34-0.234-0.355-0.44c-0.079-1.019-0.565-1.943-1.369-2.603c-0.829-0.679-1.885-0.982-2.974-0.853c-1.646,0.197-3.006,1.442-3.307,3.028c-0.094,0.496-0.091,0.99,0.009,1.471c0.046,0.219-0.06,0.441-0.258,0.544c-0.197,0.104-0.439,0.063-0.595-0.099c-0.428-0.451-1.008-0.7-1.635-0.7c-1.169,0-2.145,0.891-2.221,2.028c-0.01,0.145-0.082,0.278-0.198,0.366s-0.265,0.119-0.407,0.089c-0.638-0.14-1.241-0.099-1.844,0.124c-1.262,0.463-2.145,1.631-2.195,2.906c-0.035,0.875,0.282,1.708,0.895,2.345c0.635,0.661,1.495,1.024,2.423,1.024h8.808c0.276,0,0.5,0.224,0.5,0.5s-0.224,0.5-0.5,0.5h-8.808c-1.185,0-2.331-0.485-3.144-1.332c-0.803-0.835-1.219-1.928-1.174-3.078c0.068-1.675,1.213-3.204,2.85-3.805c0.611-0.225,1.241-0.307,1.881-0.244c0.345-1.396,1.629-2.424,3.135-2.424c0.493,0,0.977,0.113,1.414,0.323c0.009-0.241,0.036-0.483,0.082-0.725c0.381-2.01,2.096-3.586,4.17-3.835c1.364-0.161,2.686,0.218,3.727,1.073c0.748,0.613,1.278,1.409,1.546,2.302c0.791-0.648,1.786-1.007,2.843-1.007c2.458,0,4.457,1.962,4.457,4.373c0,0.034-0.001,0.068-0.002,0.102c1.765,0.555,3.004,2.188,3.004,4.038C48.367,74.214,46.428,76.116,44.046,76.116z M34.388,76.116h-0.359c-0.276,0-0.5-0.224-0.5-0.5s0.224-0.5,0.5-0.5h0.359c0.276,0,0.5,0.224,0.5,0.5S34.664,76.116,34.388,76.116z"/><path fill="#472b29" d="M42.338,70.313c-0.018,0-0.036-0.002-0.055-0.006c-0.135-0.03-0.22-0.164-0.189-0.298c0.037-0.164,0.094-0.326,0.169-0.479c0.605-1.227,2.276-1.675,3.722-1.007c0.126,0.058,0.181,0.207,0.122,0.332c-0.058,0.125-0.209,0.181-0.331,0.122c-1.208-0.558-2.579-0.209-3.063,0.774c-0.059,0.118-0.102,0.241-0.13,0.367C42.556,70.234,42.453,70.313,42.338,70.313z"/><g><path fill="#472b29" d="M37.18,76.116h-1.107c-0.276,0-0.5-0.224-0.5-0.5s0.224-0.5,0.5-0.5h1.107c0.276,0,0.5,0.224,0.5,0.5S37.456,76.116,37.18,76.116z"/></g></g></svg>